<?xml version="1.0" encoding="utf-8"?>
<!-- Generator: Adobe Illustrator 26.0.1, SVG Export Plug-In . SVG Version: 6.00 Build 0)  -->
<svg version="1.1" id="Layer_1" xmlns="http://www.w3.org/2000/svg" xmlns:xlink="http://www.w3.org/1999/xlink" x="0px" y="0px"
	 viewBox="0 0 700 140" style="enable-background:new 0 0 700 140;" xml:space="preserve">
<style type="text/css">
	.st0{fill:#FFFFFF;}
</style>
<g>
	<g>
		<g>
			<path class="st0" d="M28,92.2l35.5-40.5V37.5H2.7v17.2h35L1.4,95.5v13.9h63V92.2H28z"/>
			<path class="st0" d="M107.8,35.6C85.5,35.6,69,51.7,69,73.4c0,21.6,16.5,37.9,38.8,37.9c22.5,0,39-16.2,39-37.9
				C146.8,51.7,130.3,35.6,107.8,35.6z M107.8,93.2C97,93.2,88.8,85,88.8,73.4c0-11.7,8.2-19.8,19.1-19.8c10.9,0,19.1,8.1,19.1,19.8
				C126.9,85,118.7,93.2,107.8,93.2z"/>
			<path class="st0" d="M195.9,35.6c-8.1,0-16,2.7-21.1,10.4v-8.4H156v71.9h19.3V70c0-10.6,6.7-16.3,15.2-16.3c8.9,0,14,5.7,14,16.2
				v39.5h19.4V63.7C223.9,46.9,212.3,35.6,195.9,35.6z"/>
			<path class="st0" d="M277.8,35.6c-8.1,0-16,2.7-21.1,10.4v-8.4h-18.9v71.9h19.4V70c0-10.6,6.7-16.3,15.2-16.3
				c8.8,0,14,5.7,14,16.2v39.5h19.4V63.7C305.8,46.9,294.1,35.6,277.8,35.6z"/>
			<path class="st0" d="M386.1,73.4c0-22.5-14.2-37.8-35-37.8c-21.5,0-36.3,15.4-36.3,38c0,22.7,15.2,37.7,37.3,37.7
				c12.1,0,22.5-3.5,30.7-10.9l-11.3-12.5c-5.2,4.4-11.9,7-18.1,7c-9.2,0-16.4-4.6-18.5-14.9h50.9C386,78.2,386.1,75.6,386.1,73.4z
				 M334.8,66.6c1.8-8.9,7.1-14.4,16.2-14.4c8.3,0,13.8,5.2,15.7,14.4H334.8z"/>
			<path class="st0" d="M465.2,51.7c-0.2-0.4-0.5-0.7-0.7-1.1c-6.2-9.4-16.3-15.1-28.2-15.1c-9.9,0-16.8,4-21.5,9.8v-7.9h-19v101.6
				h19.3v-37.1c4.7,5.6,11.5,9.4,21.2,9.4c11.8,0,21.9-5.8,28.1-15.1c0.2-0.3,0.5-0.7,0.7-1.1c3.8-6,6-13.5,6-21.7
				S469,57.8,465.2,51.7z M432.7,93.2c-11,0-18.5-8.5-18.5-19.8s7.5-19.8,18.5-19.8c11.4,0,18.6,8.8,18.6,19.8
				C451.3,84.4,444.2,93.2,432.7,93.2z"/>
			<path class="st0" d="M481.1,11.9v97.5h19.4V0.9L481.1,11.9z"/>
			<path class="st0" d="M566.5,37.5v8c-4.6-5.9-11.6-9.9-21.5-9.9c-19.8,0-34.8,16.2-34.8,37.9c0,21.5,15,37.9,34.8,37.9
				c9.9,0,16.8-4.1,21.5-9.9v8h19V37.5H566.5z M548.6,93.2c-11.3,0-18.6-8.9-18.6-19.8c0-11,7.2-19.8,18.6-19.8
				c11,0,18.6,8.5,18.6,19.8S559.6,93.2,548.6,93.2z"/>
			<path class="st0" d="M639.4,35.6c-8.1,0-16,2.7-21.1,10.4v-8.4h-18.8v71.9h19.4V70c0-10.6,6.6-16.3,15.2-16.3
				c8.9,0,14,5.7,14,16.2v39.5h19.4V63.7C667.4,46.9,655.8,35.6,639.4,35.6z"/>
		</g>
	</g>
	<circle class="st0" cx="686.1" cy="15" r="12.5"/>
</g>
</svg>
